<mxfile host="app.diagrams.net" modified="2023-04-29T11:09:35.589Z" agent="Mozilla/5.0 (Windows NT 10.0; Win64; x64) AppleWebKit/537.36 (KHTML, like Gecko) Chrome/112.0.0.0 Safari/537.36" etag="jJ9tGqMx_Ttm99C6lfWd" version="21.2.3" type="device">
  <diagram id="ql5Kk59QJ9DEcHVxNvi2" name="Page-1">
    <mxGraphModel dx="1456" dy="657" grid="1" gridSize="10" guides="1" tooltips="1" connect="1" arrows="1" fold="1" page="1" pageScale="1" pageWidth="827" pageHeight="1169" math="0" shadow="0">
      <root>
        <mxCell id="0" />
        <mxCell id="1" parent="0" />
        <mxCell id="EnnZCZ1k5EJQhtIXUkQg-1" value="Archivio trailer" style="html=1;dashed=0;whitespace=wrap;shape=partialRectangle;right=0;left=0;" parent="1" vertex="1">
          <mxGeometry x="440" y="60" width="100" height="30" as="geometry" />
        </mxCell>
        <mxCell id="EnnZCZ1k5EJQhtIXUkQg-2" value="Process (1.1)" style="swimlane;fillColor=#E6E6E6;" parent="1" vertex="1">
          <mxGeometry x="280" y="185" width="140" height="110" as="geometry" />
        </mxCell>
        <mxCell id="EnnZCZ1k5EJQhtIXUkQg-3" value="SELEZIONE&lt;br&gt;PELLICOLE (LE1)" style="text;html=1;align=center;verticalAlign=middle;resizable=0;points=[];autosize=1;strokeColor=none;fillColor=none;" parent="EnnZCZ1k5EJQhtIXUkQg-2" vertex="1">
          <mxGeometry x="10" y="45" width="120" height="40" as="geometry" />
        </mxCell>
        <mxCell id="EnnZCZ1k5EJQhtIXUkQg-4" value="" style="group" parent="1" vertex="1" connectable="0">
          <mxGeometry x="40" y="170" width="150" height="140" as="geometry" />
        </mxCell>
        <mxCell id="EnnZCZ1k5EJQhtIXUkQg-5" value="Titolare" style="rounded=0;whiteSpace=wrap;html=1;fillColor=none;" parent="EnnZCZ1k5EJQhtIXUkQg-4" vertex="1">
          <mxGeometry width="150" height="140" as="geometry" />
        </mxCell>
        <mxCell id="EnnZCZ1k5EJQhtIXUkQg-6" value="ID" style="text;html=1;strokeColor=none;fillColor=none;align=center;verticalAlign=middle;whiteSpace=wrap;rounded=0;" parent="EnnZCZ1k5EJQhtIXUkQg-4" vertex="1">
          <mxGeometry width="60" height="30" as="geometry" />
        </mxCell>
        <mxCell id="7Ik0bedyeaF3ClKVd_Q6-1" value="" style="group" vertex="1" connectable="0" parent="1">
          <mxGeometry x="510" y="170" width="150" height="140" as="geometry" />
        </mxCell>
        <mxCell id="7Ik0bedyeaF3ClKVd_Q6-2" value="Agente distributore" style="rounded=0;whiteSpace=wrap;html=1;fillColor=none;" vertex="1" parent="7Ik0bedyeaF3ClKVd_Q6-1">
          <mxGeometry width="150" height="140" as="geometry" />
        </mxCell>
        <mxCell id="7Ik0bedyeaF3ClKVd_Q6-3" value="ID" style="text;html=1;strokeColor=none;fillColor=none;align=center;verticalAlign=middle;whiteSpace=wrap;rounded=0;" vertex="1" parent="7Ik0bedyeaF3ClKVd_Q6-1">
          <mxGeometry width="60" height="30" as="geometry" />
        </mxCell>
        <mxCell id="7Ik0bedyeaF3ClKVd_Q6-4" value="" style="endArrow=classic;html=1;rounded=0;entryX=0;entryY=0.5;entryDx=0;entryDy=0;" edge="1" parent="1" target="EnnZCZ1k5EJQhtIXUkQg-2">
          <mxGeometry relative="1" as="geometry">
            <mxPoint x="190" y="240" as="sourcePoint" />
            <mxPoint x="280" y="210" as="targetPoint" />
          </mxGeometry>
        </mxCell>
        <mxCell id="7Ik0bedyeaF3ClKVd_Q6-5" value="Pellicola&lt;br&gt;selezionata" style="edgeLabel;resizable=0;html=1;align=center;verticalAlign=middle;" connectable="0" vertex="1" parent="7Ik0bedyeaF3ClKVd_Q6-4">
          <mxGeometry relative="1" as="geometry" />
        </mxCell>
        <mxCell id="7Ik0bedyeaF3ClKVd_Q6-6" value="" style="endArrow=classic;html=1;rounded=0;" edge="1" parent="1">
          <mxGeometry relative="1" as="geometry">
            <mxPoint x="420" y="239.57" as="sourcePoint" />
            <mxPoint x="510" y="239.57" as="targetPoint" />
          </mxGeometry>
        </mxCell>
        <mxCell id="7Ik0bedyeaF3ClKVd_Q6-7" value="Pellicola&lt;br&gt;selezionata" style="edgeLabel;resizable=0;html=1;align=center;verticalAlign=middle;" connectable="0" vertex="1" parent="7Ik0bedyeaF3ClKVd_Q6-6">
          <mxGeometry relative="1" as="geometry" />
        </mxCell>
        <mxCell id="7Ik0bedyeaF3ClKVd_Q6-8" value="" style="endArrow=classic;html=1;rounded=0;" edge="1" parent="1">
          <mxGeometry relative="1" as="geometry">
            <mxPoint x="540" y="405" as="sourcePoint" />
            <mxPoint x="420" y="404.57" as="targetPoint" />
            <Array as="points">
              <mxPoint x="540" y="310" />
              <mxPoint x="540" y="405" />
            </Array>
          </mxGeometry>
        </mxCell>
        <mxCell id="7Ik0bedyeaF3ClKVd_Q6-9" value="Locandine" style="edgeLabel;resizable=0;html=1;align=center;verticalAlign=middle;" connectable="0" vertex="1" parent="7Ik0bedyeaF3ClKVd_Q6-8">
          <mxGeometry relative="1" as="geometry">
            <mxPoint y="-10" as="offset" />
          </mxGeometry>
        </mxCell>
        <mxCell id="7Ik0bedyeaF3ClKVd_Q6-10" value="Process (1.2)" style="swimlane;fillColor=#E6E6E6;" vertex="1" parent="1">
          <mxGeometry x="280" y="350" width="140" height="110" as="geometry" />
        </mxCell>
        <mxCell id="7Ik0bedyeaF3ClKVd_Q6-11" value="Fornitura&lt;br&gt;trailer/locandine" style="text;html=1;align=center;verticalAlign=middle;resizable=0;points=[];autosize=1;strokeColor=none;fillColor=none;" vertex="1" parent="7Ik0bedyeaF3ClKVd_Q6-10">
          <mxGeometry x="15" y="45" width="110" height="40" as="geometry" />
        </mxCell>
        <mxCell id="7Ik0bedyeaF3ClKVd_Q6-12" value="" style="endArrow=classic;html=1;rounded=0;" edge="1" parent="1">
          <mxGeometry relative="1" as="geometry">
            <mxPoint x="280" y="400" as="sourcePoint" />
            <mxPoint x="140" y="310" as="targetPoint" />
            <Array as="points">
              <mxPoint x="280" y="400" />
              <mxPoint x="140" y="400" />
            </Array>
          </mxGeometry>
        </mxCell>
        <mxCell id="7Ik0bedyeaF3ClKVd_Q6-13" value="Trailer" style="edgeLabel;resizable=0;html=1;align=center;verticalAlign=middle;" connectable="0" vertex="1" parent="7Ik0bedyeaF3ClKVd_Q6-12">
          <mxGeometry relative="1" as="geometry">
            <mxPoint x="-20" y="-40" as="offset" />
          </mxGeometry>
        </mxCell>
        <mxCell id="7Ik0bedyeaF3ClKVd_Q6-14" value="" style="endArrow=classic;html=1;rounded=0;" edge="1" parent="1">
          <mxGeometry relative="1" as="geometry">
            <mxPoint x="580" y="310" as="sourcePoint" />
            <mxPoint x="420" y="434.57" as="targetPoint" />
            <Array as="points">
              <mxPoint x="580" y="435" />
            </Array>
          </mxGeometry>
        </mxCell>
        <mxCell id="7Ik0bedyeaF3ClKVd_Q6-15" value="Trailer" style="edgeLabel;resizable=0;html=1;align=center;verticalAlign=middle;" connectable="0" vertex="1" parent="7Ik0bedyeaF3ClKVd_Q6-14">
          <mxGeometry relative="1" as="geometry">
            <mxPoint x="18" y="-45" as="offset" />
          </mxGeometry>
        </mxCell>
        <mxCell id="7Ik0bedyeaF3ClKVd_Q6-18" value="Process (1.3)" style="swimlane;fillColor=#E6E6E6;" vertex="1" parent="1">
          <mxGeometry x="200" y="20" width="140" height="110" as="geometry" />
        </mxCell>
        <mxCell id="7Ik0bedyeaF3ClKVd_Q6-19" value="Individuazione trailer&lt;br&gt;di interesse" style="text;html=1;align=center;verticalAlign=middle;resizable=0;points=[];autosize=1;strokeColor=none;fillColor=none;" vertex="1" parent="7Ik0bedyeaF3ClKVd_Q6-18">
          <mxGeometry x="5" y="45" width="130" height="40" as="geometry" />
        </mxCell>
        <mxCell id="7Ik0bedyeaF3ClKVd_Q6-20" value="" style="endArrow=classic;html=1;rounded=0;" edge="1" parent="1">
          <mxGeometry relative="1" as="geometry">
            <mxPoint x="150" y="170" as="sourcePoint" />
            <mxPoint x="200" y="80" as="targetPoint" />
            <Array as="points">
              <mxPoint x="150" y="80" />
            </Array>
          </mxGeometry>
        </mxCell>
        <mxCell id="7Ik0bedyeaF3ClKVd_Q6-21" value="Trailer" style="edgeLabel;resizable=0;html=1;align=center;verticalAlign=middle;" connectable="0" vertex="1" parent="7Ik0bedyeaF3ClKVd_Q6-20">
          <mxGeometry relative="1" as="geometry">
            <mxPoint y="20" as="offset" />
          </mxGeometry>
        </mxCell>
        <mxCell id="7Ik0bedyeaF3ClKVd_Q6-22" value="" style="endArrow=classic;html=1;rounded=0;entryX=0;entryY=0.5;entryDx=0;entryDy=0;" edge="1" parent="1" target="EnnZCZ1k5EJQhtIXUkQg-1">
          <mxGeometry relative="1" as="geometry">
            <mxPoint x="340" y="75" as="sourcePoint" />
            <mxPoint x="440" y="80" as="targetPoint" />
            <Array as="points" />
          </mxGeometry>
        </mxCell>
        <mxCell id="7Ik0bedyeaF3ClKVd_Q6-23" value="Trailer" style="edgeLabel;resizable=0;html=1;align=center;verticalAlign=middle;" connectable="0" vertex="1" parent="7Ik0bedyeaF3ClKVd_Q6-22">
          <mxGeometry relative="1" as="geometry" />
        </mxCell>
        <mxCell id="7Ik0bedyeaF3ClKVd_Q6-24" value="" style="group" vertex="1" connectable="0" parent="1">
          <mxGeometry x="20" y="502.78" width="150" height="140" as="geometry" />
        </mxCell>
        <mxCell id="7Ik0bedyeaF3ClKVd_Q6-25" value="Sponsor" style="rounded=0;whiteSpace=wrap;html=1;fillColor=none;" vertex="1" parent="7Ik0bedyeaF3ClKVd_Q6-24">
          <mxGeometry width="150" height="140" as="geometry" />
        </mxCell>
        <mxCell id="7Ik0bedyeaF3ClKVd_Q6-26" value="ID" style="text;html=1;strokeColor=none;fillColor=none;align=center;verticalAlign=middle;whiteSpace=wrap;rounded=0;" vertex="1" parent="7Ik0bedyeaF3ClKVd_Q6-24">
          <mxGeometry width="60" height="30" as="geometry" />
        </mxCell>
        <mxCell id="7Ik0bedyeaF3ClKVd_Q6-27" value="Process (1.4)" style="swimlane;fillColor=#E6E6E6;" vertex="1" parent="1">
          <mxGeometry x="270" y="517.78" width="140" height="110" as="geometry" />
        </mxCell>
        <mxCell id="7Ik0bedyeaF3ClKVd_Q6-28" value="Fornitura pubblicità" style="text;html=1;align=center;verticalAlign=middle;resizable=0;points=[];autosize=1;strokeColor=none;fillColor=none;" vertex="1" parent="7Ik0bedyeaF3ClKVd_Q6-27">
          <mxGeometry x="5" y="50" width="130" height="30" as="geometry" />
        </mxCell>
        <mxCell id="7Ik0bedyeaF3ClKVd_Q6-29" value="" style="endArrow=classic;html=1;rounded=0;" edge="1" parent="1">
          <mxGeometry relative="1" as="geometry">
            <mxPoint x="170" y="552.78" as="sourcePoint" />
            <mxPoint x="270" y="552.78" as="targetPoint" />
          </mxGeometry>
        </mxCell>
        <mxCell id="7Ik0bedyeaF3ClKVd_Q6-30" value="Pubblicità" style="edgeLabel;resizable=0;html=1;align=center;verticalAlign=middle;" connectable="0" vertex="1" parent="7Ik0bedyeaF3ClKVd_Q6-29">
          <mxGeometry relative="1" as="geometry" />
        </mxCell>
        <mxCell id="7Ik0bedyeaF3ClKVd_Q6-31" value="" style="endArrow=classic;html=1;rounded=0;exitX=-0.017;exitY=0.31;exitDx=0;exitDy=0;exitPerimeter=0;" edge="1" parent="1">
          <mxGeometry relative="1" as="geometry">
            <mxPoint x="170" y="594.78" as="sourcePoint" />
            <mxPoint x="270" y="592.78" as="targetPoint" />
          </mxGeometry>
        </mxCell>
        <mxCell id="7Ik0bedyeaF3ClKVd_Q6-32" value="Percentuale&lt;br&gt;di incasso" style="edgeLabel;resizable=0;html=1;align=center;verticalAlign=middle;" connectable="0" vertex="1" parent="7Ik0bedyeaF3ClKVd_Q6-31">
          <mxGeometry relative="1" as="geometry" />
        </mxCell>
        <mxCell id="7Ik0bedyeaF3ClKVd_Q6-33" value="" style="endArrow=classic;html=1;rounded=0;entryX=1;entryY=0.5;entryDx=0;entryDy=0;" edge="1" parent="1" target="7Ik0bedyeaF3ClKVd_Q6-35">
          <mxGeometry relative="1" as="geometry">
            <mxPoint x="280" y="434.64" as="sourcePoint" />
            <mxPoint x="170" y="434.64" as="targetPoint" />
            <Array as="points">
              <mxPoint x="230" y="434.64" />
            </Array>
          </mxGeometry>
        </mxCell>
        <mxCell id="7Ik0bedyeaF3ClKVd_Q6-34" value="Locandine" style="edgeLabel;resizable=0;html=1;align=center;verticalAlign=middle;" connectable="0" vertex="1" parent="7Ik0bedyeaF3ClKVd_Q6-33">
          <mxGeometry relative="1" as="geometry">
            <mxPoint x="5" as="offset" />
          </mxGeometry>
        </mxCell>
        <mxCell id="7Ik0bedyeaF3ClKVd_Q6-35" value="Locandine" style="html=1;dashed=0;whitespace=wrap;shape=partialRectangle;right=0;left=0;" vertex="1" parent="1">
          <mxGeometry x="65" y="420" width="100" height="30" as="geometry" />
        </mxCell>
        <mxCell id="7Ik0bedyeaF3ClKVd_Q6-38" value="Process (1.5)" style="swimlane;fillColor=#E6E6E6;" vertex="1" parent="1">
          <mxGeometry x="650" y="390" width="150" height="110" as="geometry" />
        </mxCell>
        <mxCell id="7Ik0bedyeaF3ClKVd_Q6-39" value="PROIEZIONE &lt;br&gt;FILM/PUBBLICITÀ (AO3)" style="text;html=1;align=center;verticalAlign=middle;resizable=0;points=[];autosize=1;strokeColor=none;fillColor=none;" vertex="1" parent="7Ik0bedyeaF3ClKVd_Q6-38">
          <mxGeometry x="-5" y="45" width="160" height="40" as="geometry" />
        </mxCell>
        <mxCell id="7Ik0bedyeaF3ClKVd_Q6-40" value="" style="endArrow=classic;html=1;rounded=0;entryX=0.5;entryY=0;entryDx=0;entryDy=0;" edge="1" parent="1" target="7Ik0bedyeaF3ClKVd_Q6-38">
          <mxGeometry relative="1" as="geometry">
            <mxPoint x="540" y="74.57" as="sourcePoint" />
            <mxPoint x="770" y="75" as="targetPoint" />
            <Array as="points">
              <mxPoint x="725" y="75" />
            </Array>
          </mxGeometry>
        </mxCell>
        <mxCell id="7Ik0bedyeaF3ClKVd_Q6-41" value="Trailer" style="edgeLabel;resizable=0;html=1;align=center;verticalAlign=middle;" connectable="0" vertex="1" parent="7Ik0bedyeaF3ClKVd_Q6-40">
          <mxGeometry relative="1" as="geometry" />
        </mxCell>
        <mxCell id="7Ik0bedyeaF3ClKVd_Q6-46" value="Archivio incassi" style="html=1;dashed=0;whitespace=wrap;shape=partialRectangle;right=0;left=0;" vertex="1" parent="1">
          <mxGeometry x="510" y="592.78" width="100" height="30" as="geometry" />
        </mxCell>
        <mxCell id="7Ik0bedyeaF3ClKVd_Q6-49" value="Archivio pubblicità" style="html=1;dashed=0;whitespace=wrap;shape=partialRectangle;right=0;left=0;" vertex="1" parent="1">
          <mxGeometry x="510" y="532.78" width="100" height="40" as="geometry" />
        </mxCell>
        <mxCell id="7Ik0bedyeaF3ClKVd_Q6-50" value="" style="endArrow=classic;html=1;rounded=0;exitX=1;exitY=0.5;exitDx=0;exitDy=0;entryX=0.012;entryY=1.054;entryDx=0;entryDy=0;entryPerimeter=0;" edge="1" parent="1" source="7Ik0bedyeaF3ClKVd_Q6-49" target="7Ik0bedyeaF3ClKVd_Q6-39">
          <mxGeometry relative="1" as="geometry">
            <mxPoint x="230" y="809.47" as="sourcePoint" />
            <mxPoint x="730" y="570" as="targetPoint" />
            <Array as="points">
              <mxPoint x="630" y="553" />
              <mxPoint x="630" y="477" />
            </Array>
          </mxGeometry>
        </mxCell>
        <mxCell id="7Ik0bedyeaF3ClKVd_Q6-51" value="Pubblicità" style="edgeLabel;resizable=0;html=1;align=center;verticalAlign=middle;" connectable="0" vertex="1" parent="7Ik0bedyeaF3ClKVd_Q6-50">
          <mxGeometry relative="1" as="geometry">
            <mxPoint y="1" as="offset" />
          </mxGeometry>
        </mxCell>
        <mxCell id="7Ik0bedyeaF3ClKVd_Q6-52" value="" style="endArrow=classic;html=1;rounded=0;exitX=-0.017;exitY=0.31;exitDx=0;exitDy=0;exitPerimeter=0;" edge="1" parent="1">
          <mxGeometry relative="1" as="geometry">
            <mxPoint x="410" y="608.78" as="sourcePoint" />
            <mxPoint x="510" y="606.78" as="targetPoint" />
          </mxGeometry>
        </mxCell>
        <mxCell id="7Ik0bedyeaF3ClKVd_Q6-53" value="Percentuale&lt;br&gt;di incasso" style="edgeLabel;resizable=0;html=1;align=center;verticalAlign=middle;" connectable="0" vertex="1" parent="7Ik0bedyeaF3ClKVd_Q6-52">
          <mxGeometry relative="1" as="geometry" />
        </mxCell>
        <mxCell id="7Ik0bedyeaF3ClKVd_Q6-54" value="" style="endArrow=classic;html=1;rounded=0;" edge="1" parent="1">
          <mxGeometry relative="1" as="geometry">
            <mxPoint x="410" y="552.78" as="sourcePoint" />
            <mxPoint x="510" y="552.78" as="targetPoint" />
          </mxGeometry>
        </mxCell>
        <mxCell id="7Ik0bedyeaF3ClKVd_Q6-55" value="Pubblicità" style="edgeLabel;resizable=0;html=1;align=center;verticalAlign=middle;" connectable="0" vertex="1" parent="7Ik0bedyeaF3ClKVd_Q6-54">
          <mxGeometry relative="1" as="geometry" />
        </mxCell>
      </root>
    </mxGraphModel>
  </diagram>
</mxfile>
